<svg width="25" height="26" viewBox="0 0 25 26" fill="none" xmlns="http://www.w3.org/2000/svg">
<path d="M-nan -nanL22.2265 3.12177C21.6645 2.44911 20.9972 1.9155 20.2628 1.55144C19.5284 1.18738 18.7412 1 17.9463 1C17.1513 1 16.3641 1.18738 15.6297 1.55144C14.8953 1.9155 14.228 2.44911 13.666 3.12177L13.267 3.59921C12.8672 4.07743 12.1322 4.07743 11.7324 3.59921L11.3334 3.12177C10.1982 1.76368 8.65854 1.0007 7.05315 1.0007C5.44775 1.0007 3.90811 1.76368 2.77293 3.12177C1.63774 4.47987 1 6.32185 1 8.24249C1 10.1631 1.63774 12.0051 2.77293 13.3632L3.93926 14.7586L11.7324 24.0821C12.1322 24.5603 12.8672 24.5603 13.267 24.0821L21.0602 14.7586L22.2265 13.3632C22.7887 12.6909 23.2348 11.8926 23.5391 11.0139C23.8434 10.1353 24 9.19356 24 8.24249C24 7.29142 23.8434 6.34967 23.5391 5.47104C23.2348 4.59241 22.7887 3.79412 22.2265 3.12177L-nan -nanL-nan -nanZ" stroke="white" stroke-width="2" stroke-linecap="round" stroke-linejoin="round"/>
</svg>
