<svg width="26" height="20" viewBox="0 0 26 20" fill="none" xmlns="http://www.w3.org/2000/svg">
<path d="M12.4865 5.18853L4.27587 11.9683V19.2856C4.27587 19.4751 4.35094 19.6568 4.48457 19.7908C4.61819 19.9247 4.79943 20 4.9884 20L9.97881 19.9871C10.1672 19.9861 10.3475 19.9104 10.4803 19.7766C10.6132 19.6427 10.6878 19.4615 10.6878 19.2727V14.9994C10.6878 14.81 10.7629 14.6283 10.8965 14.4943C11.0301 14.3603 11.2113 14.2851 11.4003 14.2851H14.2504C14.4394 14.2851 14.6207 14.3603 14.7543 14.4943C14.8879 14.6283 14.963 14.81 14.963 14.9994V19.2696C14.9627 19.3636 14.9809 19.4567 15.0166 19.5436C15.0523 19.6306 15.1047 19.7096 15.1709 19.7761C15.2371 19.8427 15.3157 19.8955 15.4023 19.9316C15.4889 19.9676 15.5818 19.9862 15.6755 19.9862L20.6641 20C20.8531 20 21.0344 19.9247 21.168 19.7908C21.3016 19.6568 21.3767 19.4751 21.3767 19.2856V11.9634L13.1678 5.18853C13.0713 5.11054 12.9511 5.06801 12.8272 5.06801C12.7032 5.06801 12.583 5.11054 12.4865 5.18853ZM25.4559 9.79663L21.7329 6.71995V0.535774C21.7329 0.393678 21.6766 0.257402 21.5764 0.156925C21.4762 0.0564476 21.3403 0 21.1985 0H18.7047C18.5629 0 18.427 0.0564476 18.3268 0.156925C18.2266 0.257402 18.1703 0.393678 18.1703 0.535774V3.77765L14.1832 0.488894C13.8006 0.173224 13.3205 0.000631028 12.8249 0.000631028C12.3294 0.000631028 11.8493 0.173224 11.4667 0.488894L0.193942 9.79663C0.139829 9.84147 0.0950582 9.89656 0.062189 9.95876C0.0293198 10.021 0.00899608 10.089 0.00237904 10.1591C-0.004238 10.2292 0.00298136 10.2999 0.0236246 10.3671C0.0442678 10.4344 0.0779304 10.497 0.122689 10.5512L1.25829 11.9353C1.30293 11.9897 1.35783 12.0347 1.41986 12.0678C1.48188 12.101 1.54981 12.1215 1.61976 12.1282C1.68971 12.135 1.7603 12.1279 1.8275 12.1072C1.89469 12.0866 1.95717 12.0529 2.01135 12.008L12.4865 3.35796C12.583 3.27998 12.7032 3.23745 12.8272 3.23745C12.9511 3.23745 13.0713 3.27998 13.1678 3.35796L23.6434 12.008C23.6975 12.0529 23.7599 12.0867 23.827 12.1074C23.8941 12.1281 23.9646 12.1353 24.0345 12.1287C24.1044 12.122 24.1723 12.1016 24.2343 12.0687C24.2964 12.0357 24.3513 11.9909 24.396 11.9366L25.5316 10.5525C25.5763 10.498 25.6099 10.4351 25.6303 10.3675C25.6507 10.3 25.6575 10.229 25.6505 10.1588C25.6435 10.0886 25.6227 10.0204 25.5893 9.95824C25.5559 9.89609 25.5106 9.84117 25.4559 9.79663Z" fill="white"/>
</svg>
