<svg width="28" height="26" viewBox="0 0 28 26" fill="none" xmlns="http://www.w3.org/2000/svg">
<path d="M-nan -nanL25.5373 15.0696L16.2539 23.6676C16.0134 23.8905 15.7278 24.0674 15.4135 24.1881C15.0991 24.3088 14.7621 24.371 14.4218 24.371C14.0815 24.371 13.7446 24.3088 13.4302 24.1881C13.1158 24.0674 12.8302 23.8905 12.5898 23.6676L1.7887 13.6756C1.5841 13.4863 1.46777 13.2203 1.46777 12.9415V2.38709C1.46777 1.8348 1.91549 1.38708 2.46777 1.38708H14.0234C14.2754 1.38708 14.5181 1.4822 14.7029 1.65341L25.5373 11.6879C26.0196 12.1373 26.2904 12.7451 26.2904 13.3787C26.2904 14.0123 26.0196 14.6202 25.5373 15.0696L-nan -nanL-nan -nanZ" stroke="white" stroke-width="2" stroke-linecap="round" stroke-linejoin="round"/>
</svg>
