<svg width="35" height="28" viewBox="0 0 35 28" fill="none" xmlns="http://www.w3.org/2000/svg">
<path d="M33.1775 1.01457C31.7899 1.99332 30.2536 2.74191 28.6277 3.23151C27.7551 2.22811 26.5953 1.51692 25.3053 1.19414C24.0152 0.871354 22.6572 0.952548 21.4148 1.42674C20.1724 1.90093 19.1057 2.74523 18.3588 3.84546C17.6119 4.94569 17.2209 6.24877 17.2387 7.57844V9.02742C14.6924 9.09345 12.1692 8.5287 9.89389 7.38348C7.61861 6.23825 5.66187 4.5481 4.19794 2.46355C4.19794 2.46355 -1.59797 15.5043 11.4428 21.3003C8.4587 23.3259 4.90382 24.3416 1.29999 24.1982C14.3408 31.4431 30.2795 24.1982 30.2795 7.53497C30.2782 7.13136 30.2394 6.72875 30.1636 6.33232C31.6425 4.87391 32.686 3.03258 33.1775 1.01457Z" stroke="white" stroke-width="2" stroke-linecap="round" stroke-linejoin="round"/>
</svg>
